<mxfile host="Electron" modified="2024-07-27T03:12:01.710Z" agent="Mozilla/5.0 (Macintosh; Intel Mac OS X 10_15_7) AppleWebKit/537.36 (KHTML, like Gecko) draw.io/24.6.4 Chrome/124.0.6367.207 Electron/30.0.6 Safari/537.36" etag="EYm3v88gZyjPXmrPJH18" version="24.6.4" type="device">
  <diagram name="페이지-1" id="1M2_EdpUOvXfquMewEY4">
    <mxGraphModel dx="1114" dy="894" grid="1" gridSize="10" guides="1" tooltips="1" connect="1" arrows="1" fold="1" page="1" pageScale="1" pageWidth="827" pageHeight="1169" math="0" shadow="0">
      <root>
        <mxCell id="0" />
        <mxCell id="1" parent="0" />
        <mxCell id="NR93W06Veye7wohpT4vE-3" value="&amp;nbsp;adapter.in.web" style="shape=folder;fontStyle=1;spacingTop=10;tabWidth=40;tabHeight=14;tabPosition=left;html=1;whiteSpace=wrap;verticalAlign=top;align=left;fillColor=#d5e8d4;strokeColor=#82b366;" vertex="1" parent="1">
          <mxGeometry x="60" y="65" width="160" height="175" as="geometry" />
        </mxCell>
        <mxCell id="NR93W06Veye7wohpT4vE-5" value="Controller" style="rounded=0;whiteSpace=wrap;html=1;" vertex="1" parent="1">
          <mxGeometry x="92.5" y="125" width="95" height="40" as="geometry" />
        </mxCell>
        <mxCell id="NR93W06Veye7wohpT4vE-8" value="Controller" style="rounded=0;whiteSpace=wrap;html=1;" vertex="1" parent="1">
          <mxGeometry x="92.5" y="175" width="95" height="40" as="geometry" />
        </mxCell>
        <mxCell id="NR93W06Veye7wohpT4vE-11" value="&amp;nbsp;application.service" style="shape=folder;fontStyle=1;spacingTop=10;tabWidth=40;tabHeight=14;tabPosition=left;html=1;whiteSpace=wrap;verticalAlign=top;align=left;fillColor=#dae8fc;strokeColor=#6c8ebf;" vertex="1" parent="1">
          <mxGeometry x="280" y="65" width="160" height="175" as="geometry" />
        </mxCell>
        <mxCell id="NR93W06Veye7wohpT4vE-14" value="Service" style="rounded=0;whiteSpace=wrap;html=1;" vertex="1" parent="1">
          <mxGeometry x="309" y="126" width="105" height="38" as="geometry" />
        </mxCell>
        <mxCell id="NR93W06Veye7wohpT4vE-16" value="Service" style="rounded=0;whiteSpace=wrap;html=1;" vertex="1" parent="1">
          <mxGeometry x="309" y="175" width="105" height="40" as="geometry" />
        </mxCell>
        <mxCell id="NR93W06Veye7wohpT4vE-17" style="edgeStyle=orthogonalEdgeStyle;rounded=0;orthogonalLoop=1;jettySize=auto;html=1;endArrow=block;endFill=1;curved=1;" edge="1" parent="1" source="NR93W06Veye7wohpT4vE-5" target="NR93W06Veye7wohpT4vE-14">
          <mxGeometry relative="1" as="geometry">
            <Array as="points">
              <mxPoint x="248" y="140" />
              <mxPoint x="248" y="145" />
            </Array>
          </mxGeometry>
        </mxCell>
        <mxCell id="NR93W06Veye7wohpT4vE-18" style="edgeStyle=orthogonalEdgeStyle;rounded=0;orthogonalLoop=1;jettySize=auto;html=1;entryX=0;entryY=0.25;entryDx=0;entryDy=0;endArrow=block;endFill=1;curved=1;" edge="1" parent="1" source="NR93W06Veye7wohpT4vE-5" target="NR93W06Veye7wohpT4vE-16">
          <mxGeometry relative="1" as="geometry">
            <Array as="points">
              <mxPoint x="248" y="150" />
              <mxPoint x="248" y="185" />
            </Array>
          </mxGeometry>
        </mxCell>
        <mxCell id="NR93W06Veye7wohpT4vE-19" style="edgeStyle=orthogonalEdgeStyle;rounded=0;orthogonalLoop=1;jettySize=auto;html=1;endArrow=block;endFill=1;" edge="1" parent="1" source="NR93W06Veye7wohpT4vE-8" target="NR93W06Veye7wohpT4vE-16">
          <mxGeometry relative="1" as="geometry" />
        </mxCell>
      </root>
    </mxGraphModel>
  </diagram>
</mxfile>
